<svg xmlns="http://www.w3.org/2000/svg" fill="none" viewBox="0 0 256 256"><style>@media (prefers-color-scheme:dark){.a{fill:#fff}}</style><path fill="#000" d="M124.062 133.335q0-12.385 5.987-22.606 6.108-10.221 16.286-16.233 10.179-6.133 22.513-6.133h29.577v25.372h-29.577q-8.023 0-13.771 5.892-5.748 5.772-5.748 13.948v34.39q0 8.057 5.748 13.828 5.748 5.772 13.771 5.772h43.947V33.937h25.267v153.628q0 10.46-7.424 17.917-7.424 7.455-17.843 7.455h-43.947q-12.334 0-22.513-6.012-10.178-6.133-16.286-16.233-5.987-10.222-5.987-22.486z" class="a"/><path fill="#000" d="M141.882 33.937h27.18l-125.82 179h-27.18z" class="a"/></svg>